<?xml version="1.0" encoding="utf-8"?>
<!-- Generator: Adobe Illustrator 23.0.3, SVG Export Plug-In . SVG Version: 6.00 Build 0)  -->
<svg version="1.1" id="Layer_1" xmlns="http://www.w3.org/2000/svg" xmlns:xlink="http://www.w3.org/1999/xlink" x="0px" y="0px"
	 viewBox="0 0 184.4 96" style="enable-background:new 0 0 184.4 96;" xml:space="preserve">
<style type="text/css">
	.st0{fill:url(#SVGID_1_);}
	.st1{fill:url(#SVGID_2_);}
	.st2{fill:url(#SVGID_3_);}
	.st3{fill:url(#SVGID_4_);}
	.st4{fill:url(#SVGID_5_);}
	.st5{fill:url(#SVGID_6_);}
	.st6{fill:url(#SVGID_7_);}
	.st7{fill:url(#SVGID_8_);}
	.st8{fill:url(#SVGID_9_);}
	.st9{fill:url(#SVGID_10_);}
	.st10{fill:url(#SVGID_11_);}
	.st11{fill:url(#SVGID_12_);}
	.st12{fill:url(#SVGID_13_);}
	.st13{fill:url(#SVGID_14_);}
	.st14{fill:url(#SVGID_15_);}
	.st15{fill:url(#SVGID_16_);}
	.st16{fill:url(#SVGID_17_);}
	.st17{fill:url(#SVGID_18_);}
	.st18{fill:url(#SVGID_19_);}
	.st19{fill:url(#SVGID_20_);}
	.st20{fill:url(#SVGID_21_);}
</style>
<g>
	<linearGradient id="SVGID_1_" gradientUnits="userSpaceOnUse" x1="58.1448" y1="-2.728484e-12" x2="58.1448" y2="100.2846">
		<stop  offset="0.1983" style="stop-color:#FBEEC0"/>
		<stop  offset="0.6074" style="stop-color:#8F7B46"/>
	</linearGradient>
	<path class="st0" d="M67,63.3h4.8L58.1,33.5L44.4,63.3h4.8l2.8-5.9h12.2L67,63.3z M53.7,53.7l4.4-9.8l4.4,9.8H53.7z"/>
	<linearGradient id="SVGID_2_" gradientUnits="userSpaceOnUse" x1="77.8298" y1="-4.547474e-12" x2="77.8298" y2="100.2846">
		<stop  offset="0.1983" style="stop-color:#FBEEC0"/>
		<stop  offset="0.6074" style="stop-color:#8F7B46"/>
	</linearGradient>
	<path class="st1" d="M82.2,91.1c-0.1-0.2-0.1-0.2-0.1-0.4l-2.6-0.4c-0.1,0-0.1-0.1-0.2-0.1L78,87.8c-0.2,0-0.2,0-0.4,0l-1.2,2.4
		c-0.1,0-0.1,0.1-0.2,0.1l-2.6,0.4c-0.1,0.2-0.1,0.2-0.1,0.4l1.9,1.9c0,0.1,0,0.1,0.1,0.2L75,95.7c0.1,0.1,0.1,0.1,0.2,0.1
		c0,0,0.1,0.1,0.2,0.1h0l2.4-1.2c0.1,0,0.1,0,0.2,0l2.4,1.2c0.2-0.1,0.2-0.1,0.4-0.3l-0.4-2.6c0-0.1,0-0.1,0.1-0.2L82.2,91.1z"/>
	<linearGradient id="SVGID_3_" gradientUnits="userSpaceOnUse" x1="64.2606" y1="-2.728484e-12" x2="64.2606" y2="100.2846">
		<stop  offset="0.1983" style="stop-color:#FBEEC0"/>
		<stop  offset="0.6074" style="stop-color:#8F7B46"/>
	</linearGradient>
	<path class="st2" d="M62,79.1c-0.9-0.8-1.3-1.8-1.3-3.1c0-1.2,0.5-2.3,1.4-3.1c0.9-0.8,2.1-1.2,3.4-1.2c1.3,0,2.7,0.4,4.1,1.1V71
		c-1.5-0.6-2.9-0.9-4.2-0.9c-1.8,0-3.4,0.6-4.6,1.7c-1.2,1.1-1.9,2.5-1.9,4.2c0,1.1,0.3,2,0.8,2.9c0.5,0.9,1.3,1.6,2.2,2.1
		c0.9,0.5,2.1,0.8,3.4,0.8c1.7,0,3.1-0.3,4.4-1V79c-1.4,0.9-2.8,1.3-4.3,1.3C64,80.3,62.9,79.9,62,79.1z"/>
	<linearGradient id="SVGID_4_" gradientUnits="userSpaceOnUse" x1="63.3285" y1="-2.728484e-12" x2="63.3285" y2="100.2846">
		<stop  offset="0.1983" style="stop-color:#FBEEC0"/>
		<stop  offset="0.6074" style="stop-color:#8F7B46"/>
	</linearGradient>
	<path class="st3" d="M67.7,91.1c-0.1-0.2-0.1-0.2-0.1-0.4l-2.6-0.4c-0.1,0-0.1-0.1-0.2-0.1l-1.2-2.4c-0.2,0-0.2,0-0.4,0l-1.2,2.4
		c-0.1,0-0.1,0.1-0.2,0.1l-2.6,0.4c0,0,0,0.1,0,0.1c0,0.1,0,0.2-0.1,0.3l1.9,1.9c0,0.1,0,0.1,0.1,0.2l-0.4,2.6
		c0.2,0.1,0.2,0.1,0.4,0.3l2.4-1.2c0.1,0,0.1,0,0.2,0l2.4,1.2c0.2-0.1,0.2-0.1,0.4-0.3l-0.4-2.6c0-0.1,0-0.1,0.1-0.2L67.7,91.1z"/>
	<linearGradient id="SVGID_5_" gradientUnits="userSpaceOnUse" x1="94.6638" y1="-6.366463e-12" x2="94.6638" y2="100.2846">
		<stop  offset="0.1983" style="stop-color:#FBEEC0"/>
		<stop  offset="0.6074" style="stop-color:#8F7B46"/>
	</linearGradient>
	<rect x="93.8" y="70.2" class="st4" width="1.7" height="11.5"/>
	<linearGradient id="SVGID_6_" gradientUnits="userSpaceOnUse" x1="81.6187" y1="-4.547474e-12" x2="81.6187" y2="100.2846">
		<stop  offset="0.1983" style="stop-color:#FBEEC0"/>
		<stop  offset="0.6074" style="stop-color:#8F7B46"/>
	</linearGradient>
	<polygon class="st5" points="80.7,26 82.4,26 82.4,16 86.6,16 86.6,14.6 76.6,14.6 76.6,16 80.7,16 	"/>
	<linearGradient id="SVGID_7_" gradientUnits="userSpaceOnUse" x1="105.7551" y1="-7.275958e-12" x2="105.7551" y2="100.2846">
		<stop  offset="0.1983" style="stop-color:#FBEEC0"/>
		<stop  offset="0.6074" style="stop-color:#8F7B46"/>
	</linearGradient>
	<polygon class="st6" points="109.2,24.6 104,24.6 104,21 108.9,21 108.9,19.5 104,19.5 104,16 109.1,16 109.1,14.6 102.3,14.6 
		102.3,26 109.2,26 	"/>
	<linearGradient id="SVGID_8_" gradientUnits="userSpaceOnUse" x1="11.1253" y1="2.728484e-12" x2="11.1253" y2="100.2846">
		<stop  offset="0.1983" style="stop-color:#FBEEC0"/>
		<stop  offset="0.6074" style="stop-color:#8F7B46"/>
	</linearGradient>
	<path class="st7" d="M5.7,43.9C6.4,42.3,7.4,41,8.6,40c1.2-1,2.6-1.7,4.1-2c1.1-0.2,2.2-0.3,3.3-0.3c0.9,0,1.8,0.1,2.7,0.2
		c0.8,0.1,1.7,0.4,2.6,0.7l1-3.8c-2.1-0.9-4.4-1.3-6.8-1.3h-0.5c-0.2,0-0.3,0-0.5,0c-1.4,0.1-2.8,0.3-4,0.6C9.2,34.5,8,35,6.9,35.6
		c-0.5,0.3-1,0.7-1.5,1.1c-0.5,0.4-1,0.9-1.4,1.4c-0.5,0.5-0.9,1-1.3,1.6c-0.4,0.6-0.8,1.1-1.1,1.7c-0.5,1-0.9,2.1-1.2,3.2
		C0.1,45.7,0,46.9,0,48.1c0,0.3,0,0.6,0,1c0,0.3,0,0.7,0.1,1c0.2,1.6,0.5,3.1,1,4.4c0.5,1.3,1.1,2.4,1.9,3.3C4.7,59.6,6.4,61,8.3,62
		c0.9,0.4,2,0.7,3.3,1c1.3,0.2,2.7,0.4,4.2,0.4c1.5,0,2.7-0.2,3.8-0.5c1.1-0.3,1.9-0.7,2.5-1.3V49.3H14v4h4v5.9l-2.9,0
		c-2-0.2-3.8-0.7-5.3-1.6c-1.5-0.9-2.7-2.1-3.6-3.8c-0.5-0.9-0.9-1.8-1.1-2.8c-0.2-0.9-0.4-1.8-0.4-2.7c0-0.8,0.1-1.5,0.2-2.2
		C5.2,45.4,5.4,44.7,5.7,43.9z"/>
	<linearGradient id="SVGID_9_" gradientUnits="userSpaceOnUse" x1="53.5251" y1="-1.818989e-12" x2="53.5251" y2="100.2846">
		<stop  offset="0.1983" style="stop-color:#FBEEC0"/>
		<stop  offset="0.6074" style="stop-color:#8F7B46"/>
	</linearGradient>
	<path class="st8" d="M41.7,43.2c0-2.6-0.8-4.7-2.4-6.4c3.4-0.7,9.6-0.7,9.6-0.7c0.1-4.1,0.8-7.4,1.1-8.3c0.6-0.6,2.6-2.3,3.2-2.8
		c0.7-0.6,1.3-1,2.5-0.1s3.5,2.4,4.4,3.1c0.9,0.7,4.8,3.9,5.9,4.9c1.1,1,4.5,4.6,6.9,5.5v24.9h4.8V45.9l16.3,17.4V33.5h-4.8v16.9
		L72.9,33.5v3.7c-1-0.8-5.9-5-8-7.1c-2.3-2.3-6.9-5-7.3-5.4c-0.4-0.4-0.9-0.6,0.4-1.5c1-0.7,2.3-1.9,2.9-2.4
		c0.1,0.1,0.8,0.6,1.4,1.3c0,0-0.8-2.6,1.5-3.6c0,0-1.9,3.2,1.1,5.4c3,2.2,7.3-0.6,6.3-3.4s-2.3-3.2-2.3-3.2s4.6,1,4.4-3.1
		c-0.1-3.9-3.7-4.9-5.5-4.1s-2.4,2.7-2.3,3.8c0,0-0.4-4.6-4.7-3.9c-4.3,0.7-4,6.2-1.5,6.9c2.6,0.6,3.7,0.6,3.7,0.6s-0.3,1.4-4,0.9
		c0,0,1.3,1,1.7,1.6c-1,0.7-3.4,2.2-4.3,2.6c-1.1,0.4-1,0.6-1.8,0c-0.7-0.6-5.4-2.7-6.7-2.9c-1.2-0.2-1.5-0.8-2.3-1.8
		c-0.5-0.6-1.4-2-2-3c0.4-0.5,1.3-1.3,2.1-1.3c0,0-3.4-0.5-3.7-2.1c0,0,4.8,1,5.4-2.8c0.6-3.8-2.6-5-6.7-6C36.6,1.7,34.5,0,34.5,0
		s0.1,3.3-1.2,6.5c-1.3,3.2-1.6,8.9,2.6,8.8s4.7-3,4.7-3s1,2.9-0.3,4.3c0,0,1.6-1.2,2.6-1.3c0.5,1,1.3,2.2,1.6,2.7
		c0.7,0.7,0.4,1.1-0.7,0.8c-1-0.3-4.3-0.6-6.1-0.6c-1.8,0-5.2,0-7.5,1.1c-1.7,0.8-3.5,1.7-4.8,2.1c0.3-0.9,0.6-2.5-0.6-3.7
		c-1.9-1.9-5.1-2.6-7.3,1.1c-2.2,3.7-3.2,7-4.3,7.6c0,0,3.1,1.2,5.1,2c2,0.8,6.4,2.3,8.2,0.8c1.8-1.5,3.3-5.6-1.1-6.9
		c0.7-0.2,3.5-1.1,5.1-1.7c1.8-0.7,3.6-1.4,7.3-1.3c3.7,0.1,8.1,0.8,9.5,1.5c1.4,0.8,5.6,2.4,5.7,2.8L49.5,27
		c-4.6,0.9-9.1,0.3-9.1,0.3c0.8,3.7-0.8,7.9-1.4,9.2c-1.5-1.4-3.5-2.4-6.2-3H26v29.8h4.8v-9.1l6.2,9.1h5.9l-7.1-10.2
		C39.7,50.6,41.7,47.3,41.7,43.2z M31.4,49.6h-0.7V37.4c4.1,0.4,6.2,2.5,6.2,6.1C36.9,46.9,35.1,49,31.4,49.6z"/>
	<linearGradient id="SVGID_10_" gradientUnits="userSpaceOnUse" x1="147.8099" y1="-1.182343e-11" x2="147.8099" y2="100.2846">
		<stop  offset="0.1983" style="stop-color:#FBEEC0"/>
		<stop  offset="0.6074" style="stop-color:#8F7B46"/>
	</linearGradient>
	<polygon class="st9" points="147.8,51.6 140.5,33.5 135.2,33.5 147.8,63.3 160.4,33.5 155.1,33.5 	"/>
	<linearGradient id="SVGID_11_" gradientUnits="userSpaceOnUse" x1="121.3336" y1="-9.094947e-12" x2="121.3336" y2="100.2846">
		<stop  offset="0.1983" style="stop-color:#FBEEC0"/>
		<stop  offset="0.6074" style="stop-color:#8F7B46"/>
	</linearGradient>
	<path class="st10" d="M125.7,91.1c0-0.1-0.1-0.2-0.1-0.3c0,0,0-0.1,0-0.1l-2.6-0.4c-0.1,0-0.1-0.1-0.2-0.1l-1.2-2.4
		c-0.2,0-0.2,0-0.4,0l-1.2,2.4c-0.1,0-0.1,0.1-0.2,0.1l-2.6,0.4c-0.1,0.2-0.1,0.2-0.1,0.4l1.9,1.9c0,0.1,0,0.1,0.1,0.2l-0.4,2.6
		c0.2,0.1,0.2,0.1,0.4,0.3l2.4-1.2c0.1,0,0.1,0,0.2,0l2.4,1.2c0.2-0.1,0.2-0.1,0.4-0.3l-0.4-2.6c0-0.1,0-0.1,0.1-0.2L125.7,91.1z"/>
	<linearGradient id="SVGID_12_" gradientUnits="userSpaceOnUse" x1="77.361" y1="-4.547474e-12" x2="77.361" y2="100.2846">
		<stop  offset="0.1983" style="stop-color:#FBEEC0"/>
		<stop  offset="0.6074" style="stop-color:#8F7B46"/>
	</linearGradient>
	<path class="st11" d="M76.6,70.1l-5.2,11.5h1.8l1.5-3.4h5.1l1.6,3.4h1.8l-5.4-11.5H76.6z M75.4,76.8l1.8-4.2l1.9,4.2H75.4z"/>
	<linearGradient id="SVGID_13_" gradientUnits="userSpaceOnUse" x1="106.8325" y1="-7.275958e-12" x2="106.8325" y2="100.2846">
		<stop  offset="0.1983" style="stop-color:#FBEEC0"/>
		<stop  offset="0.6074" style="stop-color:#8F7B46"/>
	</linearGradient>
	<path class="st12" d="M111.2,91.1c-0.1-0.2-0.1-0.2-0.1-0.4l-2.6-0.4c-0.1,0-0.1-0.1-0.2-0.1l-1.2-2.4c-0.2,0-0.2,0-0.4,0l-1.2,2.4
		c-0.1,0-0.1,0.1-0.2,0.1l-2.6,0.4c-0.1,0.2-0.1,0.2-0.1,0.4l1.9,1.9c0,0.1,0,0.1,0.1,0.2l-0.4,2.6c0.2,0.1,0.2,0.1,0.4,0.3l2.4-1.2
		c0.1,0,0.1,0,0.2,0l2.4,1.2c0.2-0.1,0.2-0.1,0.4-0.3l-0.4-2.6c0-0.1,0-0.1,0.1-0.2L111.2,91.1z"/>
	<linearGradient id="SVGID_14_" gradientUnits="userSpaceOnUse" x1="130.9615" y1="-1.000444e-11" x2="130.9615" y2="100.2846">
		<stop  offset="0.1983" style="stop-color:#FBEEC0"/>
		<stop  offset="0.6074" style="stop-color:#8F7B46"/>
	</linearGradient>
	<rect x="128.6" y="33.5" class="st13" width="4.8" height="29.8"/>
	<linearGradient id="SVGID_15_" gradientUnits="userSpaceOnUse" x1="173.4377" y1="-1.455192e-11" x2="173.4377" y2="100.2846">
		<stop  offset="0.1983" style="stop-color:#FBEEC0"/>
		<stop  offset="0.6074" style="stop-color:#8F7B46"/>
	</linearGradient>
	<polygon class="st14" points="179.3,33.5 173.4,47.9 167.5,33.5 162.5,33.5 170.7,53.2 170.7,63.3 176.2,63.3 176.2,53.2 
		184.4,33.5 	"/>
	<linearGradient id="SVGID_16_" gradientUnits="userSpaceOnUse" x1="119.0325" y1="-9.094947e-12" x2="119.0325" y2="100.2846">
		<stop  offset="0.1983" style="stop-color:#FBEEC0"/>
		<stop  offset="0.6074" style="stop-color:#8F7B46"/>
	</linearGradient>
	<path class="st15" d="M123.6,80.1c1.2-1.1,1.9-2.5,1.9-4.2s-0.6-3.1-1.9-4.2c-1.2-1.1-2.8-1.7-4.6-1.7c-1.9,0-3.4,0.6-4.6,1.7
		c-1.2,1.1-1.8,2.5-1.8,4.3c0,1.7,0.6,3.1,1.8,4.2c1.2,1.1,2.7,1.7,4.5,1.7C120.8,81.8,122.4,81.2,123.6,80.1z M114.4,76
		c0-1.3,0.4-2.3,1.3-3.1c0.9-0.8,2-1.2,3.4-1.2c1.3,0,2.4,0.4,3.3,1.2c0.9,0.8,1.3,1.9,1.3,3.1c0,1.2-0.4,2.3-1.3,3.1
		c-0.9,0.8-2,1.3-3.4,1.3c-1.3,0-2.4-0.4-3.3-1.2C114.8,78.2,114.4,77.2,114.4,76z"/>
	<linearGradient id="SVGID_17_" gradientUnits="userSpaceOnUse" x1="92.331" y1="-5.456968e-12" x2="92.331" y2="100.2846">
		<stop  offset="0.1983" style="stop-color:#FBEEC0"/>
		<stop  offset="0.6074" style="stop-color:#8F7B46"/>
	</linearGradient>
	<path class="st16" d="M96.7,91.1c-0.1-0.2-0.1-0.2-0.1-0.4l-2.6-0.4c-0.1,0-0.1-0.1-0.2-0.1l-1.2-2.4c-0.2,0-0.2,0-0.4,0l-1.2,2.4
		c-0.1,0-0.1,0.1-0.2,0.1l-2.6,0.4c0,0,0,0.1,0,0.1s0,0.1,0,0.1c0,0.1,0,0.1-0.1,0.2l1.9,1.9c0,0.1,0,0.1,0.1,0.2l-0.4,2.6
		c0.2,0.1,0.2,0.1,0.4,0.3l2.4-1.2c0.1,0,0.1,0,0.2,0l2.4,1.2c0.1-0.1,0.1-0.1,0.2-0.1c0,0,0.1-0.1,0.2-0.1l-0.4-2.6
		c0-0.1,0-0.1,0.1-0.2L96.7,91.1z"/>
	<linearGradient id="SVGID_18_" gradientUnits="userSpaceOnUse" x1="87.924" y1="-5.456968e-12" x2="87.924" y2="100.2846">
		<stop  offset="0.1983" style="stop-color:#FBEEC0"/>
		<stop  offset="0.6074" style="stop-color:#8F7B46"/>
	</linearGradient>
	<path class="st17" d="M91.3,78.7c0-1.3-0.7-2.4-2.2-3.2l-1.3-0.7c-0.6-0.3-1-0.6-1.3-0.9c-0.3-0.3-0.4-0.6-0.4-1
		c0-0.4,0.2-0.7,0.5-1c0.4-0.2,0.8-0.4,1.4-0.4c1,0,1.9,0.4,2.8,1.2v-1.9c-0.8-0.5-1.8-0.8-2.8-0.8c-1,0-1.9,0.3-2.6,0.8
		c-0.7,0.6-1,1.3-1,2.2c0,0.6,0.2,1.1,0.5,1.6c0.3,0.5,0.9,0.9,1.8,1.4l1.3,0.8c1.1,0.6,1.6,1.3,1.6,2c0,0.4-0.2,0.8-0.5,1.1
		c-0.4,0.3-0.8,0.4-1.3,0.4c-1.2,0-2.3-0.6-3.2-1.7v2.1c1,0.7,2.1,1,3.2,1c1,0,1.9-0.3,2.5-0.9C91,80.4,91.3,79.6,91.3,78.7z"/>
	<linearGradient id="SVGID_19_" gradientUnits="userSpaceOnUse" x1="93.9406" y1="-6.366463e-12" x2="93.9406" y2="100.2846">
		<stop  offset="0.1983" style="stop-color:#FBEEC0"/>
		<stop  offset="0.6074" style="stop-color:#8F7B46"/>
	</linearGradient>
	<polygon class="st18" points="99,26 99,14.6 97.3,14.6 97.3,19.5 90.6,19.5 90.6,14.6 88.8,14.6 88.8,26 90.6,26 90.6,21.1 
		97.3,21.1 97.3,26 	"/>
	<linearGradient id="SVGID_20_" gradientUnits="userSpaceOnUse" x1="104.3882" y1="-7.275958e-12" x2="104.3882" y2="100.2846">
		<stop  offset="0.1983" style="stop-color:#FBEEC0"/>
		<stop  offset="0.6074" style="stop-color:#8F7B46"/>
	</linearGradient>
	<polygon class="st19" points="110,81.7 110,70.2 108.3,70.2 108.3,79.1 100.2,70.2 98.8,70.2 98.8,81.7 100.4,81.7 100.4,72.8 
		108.5,81.7 	"/>
	<linearGradient id="SVGID_21_" gradientUnits="userSpaceOnUse" x1="107.7756" y1="-7.275958e-12" x2="107.7756" y2="100.2846">
		<stop  offset="0.1983" style="stop-color:#FBEEC0"/>
		<stop  offset="0.6074" style="stop-color:#8F7B46"/>
	</linearGradient>
	<path class="st20" d="M118.1,48.5c-0.6-8.6-5.4-13.5-14.4-14.8h-6.1v29.7h6.1C112.6,62,117.4,57.1,118.1,48.5z M102.3,38.2h1.4
		c6.4,1.2,9.7,4.6,9.9,10.3c-0.3,5.7-3.6,9.1-9.9,10.3h-1.4V38.2z"/>
</g>
</svg>
